<?xml version="1.0" encoding="UTF-8"?><svg id="decal" xmlns="http://www.w3.org/2000/svg" viewBox="0 0 1898.76 3189.2"><defs><style>.cls-1{fill:#c7b299;}</style></defs><path class="cls-1" d="M731.93.25c3.61,0,327.23-.25,327.23-.25,3.21,147.17-208.52,174.52-293.12,179.58-35.34,2.11-70.24,9.1-103.52,21.16-352.62,127.87,988.2,250.45,1024.43,490.17,30.64,202.76-525.92,352.83-739.25,420.15-527.78,166.55-403.11,707.32-403.11,707.32,0,0,35.81,326.38,443.47,393.14,110.25,18.05,349.28-22.78,667.98,6.13,318.7,28.92,329.14,566.95-1.94,566.95-2.68,0-96.01-2.53-66.8,27.51,319.52,328.49-604.15,412.6-847.55,364.63C6.68,3032.23,0,2617.81,0,2617.81V.25h731.93Z"/></svg>