<?xml version="1.0" encoding="UTF-8"?>
<svg id="erinik_logo" data-name="erinik logo" xmlns="http://www.w3.org/2000/svg" viewBox="0 0 500 173.88">
  <path id="k" d="M392.29,0h40.37v79.96l24.87-28.86h40.99l-31.17,30.44,32.97,56.45h-37.52l-17.6-34.83-12.54,12.25v22.58h-34.04V4.33l-6.33-4.33Z"/>
  <path id="_í" data-name="í" d="M347.95,49.09h33.3v86.89h-33.3V49.09ZM363.66,13.99h28.64l-26.43,24.46h-15.95l13.75-24.46Z"/>
  <path id="n" d="M244.85,49.09h31.01v14.15c4.64-5.78,9.33-9.91,14.07-12.4,4.75-2.48,10.53-3.72,17.35-3.72,9.22,0,16.43,2.74,21.64,8.22,5.21,5.48,7.81,13.95,7.81,25.4v55.23h-33.46v-47.78c0-5.45-1.01-9.31-3.03-11.58-2.02-2.26-4.86-3.4-8.51-3.4-4.04,0-7.31,1.53-9.82,4.58-2.51,3.06-3.76,8.54-3.76,16.45v41.73h-33.3V49.09Z"/>
  <path id="i" d="M186.39,16.04h33.3v22.66h-33.3v-22.66ZM186.39,49.09h33.3v103.04h-33.3V49.09Z"/>
  <path id="r" d="M278.15,135.98h-33.3v15.7h-83.63v-15.7h0V49.09h-33.46v9.94c-2.28-3.88-4.61-6.69-6.99-8.42-3.19-2.32-7.13-3.48-11.82-3.48s-10.28,1.53-16.12,4.58l10.31,23.73c3.93-1.64,7.04-2.45,9.33-2.45,4.36,0,7.75,1.8,10.15,5.4,3.43,5.06,5.15,14.53,5.15,28.4v29.19c0,16.15-2.18,26.52,4.47,33.18,5.24,5.24,35.88,4.58,51.48,4.58l40.88-.17c15.22,0,31.26,1.24,47.49-1.32,8.15-1.29,6.07-19.83,6.07-36.27Z"/>
  <path id="e" d="M100.96,99.12H34.2c.6,5.35,2.05,9.33,4.34,11.95,3.22,3.76,7.42,5.65,12.6,5.65,3.27,0,6.38-.82,9.33-2.45,1.8-1.04,3.74-2.86,5.81-5.48l32.81,3.03c-5.02,8.73-11.07,14.99-18.16,18.78-7.09,3.79-17.26,5.69-30.52,5.69-11.51,0-20.56-1.62-27.16-4.87-6.6-3.24-12.07-8.4-16.4-15.46-4.34-7.06-6.5-15.37-6.5-24.91,0-13.58,4.35-24.57,13.05-32.97,8.7-8.4,20.71-12.6,36.04-12.6,12.44,0,22.25,1.88,29.45,5.65s12.68,9.22,16.45,16.36c3.76,7.15,5.65,16.45,5.65,27.9v3.76ZM67.09,83.16c-.65-6.44-2.39-11.05-5.2-13.83-2.81-2.78-6.5-4.17-11.09-4.17-5.29,0-9.52,2.1-12.68,6.3-2.02,2.62-3.3,6.52-3.85,11.7h32.81Z"/>
</svg>