<?xml version="1.0" encoding="UTF-8"?>
<svg id="home" xmlns="http://www.w3.org/2000/svg" viewBox="0 0 500 398.99">
  <defs>
    <style>
      .cls-1 {
        fill: #fff8e1;
      }
    </style>
  </defs>
  <path id="base" class="cls-1" d="M291.09,398.99v-118.74h-81.64v118.74h-122.46c-3.94,0-16.63-12.94-15.94-18.69l1.13-151.97L250.27,82.24l178.09,146.09,1.13,151.97c.69,5.76-12,18.69-15.94,18.69h-122.46Z"/>
  <path id="roof" class="cls-1" d="M350.46,69.97V6.89c0-3.98,12.37-5.97,15.96-6.3,9.29-.85,57.21-1.63,60.92,4.24,9.09,14.37-2.55,109.49,2.79,132.67,1.77,6.04,50.14,41.53,58.89,49.96,12.45,11.99,14.8,12.31,4.49,26.82-7.12,10.03-17.72,25.81-30.61,16.6L250.27,52.69,36.25,231.95c-4.25,1.97-10.73,2.52-14.8.04C19.15,230.58.02,205.2,0,202.33c-.03-4.79,9.25-12.6,12.85-16.02C76.72,125.81,156.07,73.87,220.64,13.13c48.27-41.59,88.86,38.65,129.82,56.85Z"/>
</svg>