<?xml version="1.0" encoding="UTF-8"?>
<svg id="instagram_icon" data-name="instagram icon" xmlns="http://www.w3.org/2000/svg" viewBox="0 0 500 500">
  <defs>
    <style>
      .cls-1 {
        fill: #534741;
      }
    </style>
  </defs>
  <path id="camera_body" data-name="camera body" class="cls-1" d="M320.86.35l6.83.98c6.62-1.57,14.88-1.71,21.46,0l4.88.98c13.97-2.67,30.45.88,44.43,4.39,66.89,16.81,100.99,68.55,101.87,136.06v211.65c.47,51.15-20.23,99.45-67.5,126.15-31.7,17.91-61.62,18.73-95.39,19.18-57.23-1.51-115.52,2.01-172.64,0-24.72-.17-48.05-.95-71.68-8.98C35.65,471.21,7.51,424.42,2.06,366.04c-1.03-11.02-1.51-23.38-.15-34.07.8-2.85.86-5.93,0-8.78C-.19,274.6-.21,225.47,1.92,176.89c.85-2.52.8-5.28,0-7.8-1.39-11.35-.83-24.34.33-36.01C9.84,56.51,55.57,7.9,132.82,1.41c12.88-1.08,27.21-1.33,39.78-.09,3.18-.73,6.43-1.06,9.75-.98,46.11-1.34,92.38-1.04,138.5,0ZM172.4,46.48c-39.07,1.28-76.65,2.78-103.17,35.33-18.49,22.7-20.61,57.56-21.52,85.77-1.78,55.36-1.36,116.5,1.01,171.71,3.37,78.51,26.04,109.36,106.85,113.58,62.88,3.28,129.26,3.32,192.11.05,76.06-3.96,102.87-32.18,106.75-107.83,3.06-59.52,3.2-122.72,1.06-182.39-2.63-73.1-25.11-110.21-101.97-115.53-56.35-3.9-124.2-2.56-181.12-.7Z"/>
  <path class="cls-1" d="M182.36.35c-2.29.05-6.43.87-9.75.98,2.32-2.08,6.69-.56,9.75-.98Z"/>
  <path class="cls-1" d="M1.92,331.97c-.08-2.92.06-5.86,0-8.78,1.64,1.82,1.64,6.96,0,8.78Z"/>
  <path class="cls-1" d="M1.92,176.89c.06-2.59-.08-5.21,0-7.8,1.63,1.5,1.64,6.27,0,7.8Z"/>
  <path class="cls-1" d="M327.68,1.32c-2.14-.02-5.5.72-6.83-.98,2.14.02,5.5-.72,6.83.98Z"/>
  <path class="cls-1" d="M354.02,2.3c-1.56-.06-4.04.61-4.88-.98,2.14.08,4.56.96,4.88.98Z"/>
  <path id="camera_lens" data-name="camera lens" class="cls-1" d="M244.58,121.58c102.64-6.22,170.6,107.83,116.68,195.68-47.84,77.95-160.26,82.46-213.83,8.19-59.82-82.93-3.94-197.74,97.15-203.87ZM243.61,167.42c-56.38,5.25-90.28,64.18-67.94,116.12,25.64,59.64,109.36,66.79,145,12.63,38.46-58.44-7.64-135.22-77.06-128.76Z"/>
  <path id="camera_ready" data-name="camera ready" class="cls-1" d="M382.1,86.44c12.79-1.17,25.76,6.67,30.61,18.59,11.81,29.02-21.73,54.16-46.33,35.6-21.66-16.34-11.04-51.74,15.72-54.19Z"/>
</svg>