<?xml version="1.0" encoding="UTF-8"?>
<svg id="phone" xmlns="http://www.w3.org/2000/svg" viewBox="0 0 500 500">
  <defs>
    <style>
      .cls-1 {
        fill: #534741;
      }
    </style>
  </defs>
  <path id="phone_shape" data-name="phone shape" class="cls-1" d="M88.54-1.08c11.75-.55,25.58,2.27,36.16,7.58,15.15,7.59,51.76,45.18,63.98,59.25,16.87,19.42,23.23,42.67,16.93,68.09-6.8,27.45-32.78,42.72-50.11,63.13-1.7,2.81-1.68,6.3-.75,9.36l132.66,134.9c4.01,3.58,9.83,5.45,14.87,2.61,16.59-13.56,30.84-35.91,50.22-45.26,26.15-12.62,56.44-8.47,78.63,9.89,14.01,11.59,53.95,51.37,61.43,66.25,25.77,51.3-13.83,96.31-60.27,113.66-84.63,31.62-179.29-13.8-245.74-65.11C93.66,351.56-23.8,213.12,5.18,86.52,14.31,46.64,43.61,1.02,88.54-1.08Z"/>
</svg>