<?xml version="1.0" encoding="UTF-8"?>
<svg id="_" data-name="ð•" xmlns="http://www.w3.org/2000/svg" viewBox="0 0 500 456.51">
  <defs>
    <style>
      .cls-1 {
        fill: #534741;
      }
    </style>
  </defs>
  <path id="x_logo_icon" data-name="x logo icon" class="cls-1" d="M348.46,456.51c-3.49-.76-13.54-14.69-16.64-18.61-35.53-44.88-68.62-91.88-103.88-136.97l-3.72-1.74-139.3,157.32H10.23l176.22-207.26L.16-.06h156.95l110.79,144.33L395.46-.06h73.86c.19,0,3.36,2.44,1.69,3.36l-165.33,190.56c60.85,86.11,128.66,167.28,190.32,252.75,1.14,1.58,7.49,9.9,1.85,9.9h-149.39ZM136.12,45.26h-45.32c88.22,115.15,174.87,231.64,264.2,345.96,3.92,5.02,8.74,10.7,11.09,16.61h41.96c-89.02-121.99-183.44-240.5-271.93-362.57Z"/>
</svg>